<?xml version="1.0" encoding="UTF-8" standalone="no"?>
<svg
   height="16"
   viewBox="0 0 16 16"
   width="16"
   version="1.1"
   id="svg1"
   sodipodi:docname="MeshInstance3D.svg"
   xmlns:inkscape="http://www.inkscape.org/namespaces/inkscape"
   xmlns:sodipodi="http://sodipodi.sourceforge.net/DTD/sodipodi-0.dtd"
   xmlns="http://www.w3.org/2000/svg"
   xmlns:svg="http://www.w3.org/2000/svg">
  <defs
     id="defs1" />
  <sodipodi:namedview
     id="namedview1"
     pagecolor="#505050"
     bordercolor="#eeeeee"
     borderopacity="1"
     inkscape:showpageshadow="0"
     inkscape:pageopacity="0"
     inkscape:pagecheckerboard="0"
     inkscape:deskcolor="#505050" />
  <path
     d="M 4.73,2 A 2,2 0 1 0 2,4.73 v 6.541 A 2,2 0 1 0 4.73,14 h 6.541 A 2,2 0 1 0 14,11.27 V 4.729 A 2,2 0 1 0 11.27,2 Z m 0.683,2 h 5.857 a 2,2 0 0 0 0.729,0.73 v 5.856 L 5.412,4 Z M 3.999,5.414 10.584,12 H 4.727 A 2,2 0 0 0 3.998,11.27 V 5.414 Z"
     fill="#fc7f7f"
     id="path1"
     style="fill:#2132c9;fill-opacity:1" />
</svg>
