<?xml version="1.0" encoding="UTF-8" standalone="no"?>
<!-- Created with Inkscape (http://www.inkscape.org/) -->

<svg
   width="92.129257mm"
   height="104.93365mm"
   viewBox="0 0 92.129257 104.93365"
   version="1.1"
   id="svg1"
   xml:space="preserve"
   xmlns:xlink="http://www.w3.org/1999/xlink"
   xmlns="http://www.w3.org/2000/svg"
   xmlns:svg="http://www.w3.org/2000/svg"><defs
     id="defs1"><linearGradient
       id="linearGradient16"><stop
         style="stop-color:#fac10f;stop-opacity:1;"
         offset="0"
         id="stop16" /><stop
         style="stop-color:#fac10f;stop-opacity:1"
         offset="1"
         id="stop17" /></linearGradient><linearGradient
       id="linearGradient8"><stop
         style="stop-color:#f9e3cc;stop-opacity:1;"
         offset="0"
         id="stop8" /><stop
         style="stop-color:#b0b9c7;stop-opacity:1"
         offset="1"
         id="stop9" /></linearGradient><linearGradient
       xlink:href="#linearGradient8"
       id="linearGradient9"
       x1="84.580376"
       y1="186.63716"
       x2="129.9099"
       y2="173.87207"
       gradientUnits="userSpaceOnUse" /><linearGradient
       xlink:href="#linearGradient16"
       id="linearGradient17"
       x1="66.96904"
       y1="115.3498"
       x2="114.48087"
       y2="115.3498"
       gradientUnits="userSpaceOnUse" /></defs><g
     id="layer1"
     style="display:inline"
     transform="translate(-58.654817,-95.482541)"><path
       id="path2"
       style="display:inline;opacity:1;fill:url(#linearGradient9);fill-opacity:1;stroke-width:0.264583"
       d="m 104.7998,134.57008 v 0.002 l -34.634786,0.34313 0.02192,27.30945 16.173173,31.15985 c 2.242349,4.32017 6.704457,7.03155 11.571903,7.03161 h 6.86779 0.13178 6.86728 c 4.86763,1.3e-4 9.32999,-2.71127 11.57242,-7.03161 l 16.17265,-31.15985 0.0317,-27.30945 -34.64409,-0.34313 v -0.002 l -0.0661,5.2e-4 z" /><path
       id="rect18"
       style="display:inline;fill:#111111;fill-opacity:1;stroke-width:0.264999"
       d="m 104.3156,95.482544 v 0.0083 a 33.637894,33.637894 0 0 0 -8.907987,1.241785 l -15.52515,4.355291 a 7.3846044,7.3846044 0 0 0 -4.795573,4.20697 l -7.781954,18.19941 h -0.233578 c -2.362001,0 -4.263305,2.55077 -4.263305,5.71955 0,3.16878 1.901304,5.72006 4.263305,5.72006 h 3.088184 v 7.01301 h -1.910478 c -5.31502,0 -9.594246,4.27922 -9.594246,9.59425 v 1.09657 c 0,5.31503 4.279226,9.59373 9.594246,9.59373 h 2.623613 v -5.2e-4 l 23.830586,-0.001 c 2.072556,1.3e-4 3.751294,-1.68277 3.746025,-3.75533 l -0.0078,-3.08663 12.819892,-0.0119 -0.008,3.08663 c -0.005,2.07256 1.67346,3.75546 3.74602,3.75533 9.7075,0.002 22.56516,0.0117 23.56704,0.0124 v 0.0413 h 2.62361 c 5.31503,0 9.59425,-4.27872 9.59425,-9.59373 v -1.09657 c 0,-5.31503 -4.27922,-9.59425 -9.59425,-9.59425 h -1.05885 c -0.19653,-0.008 -0.38583,-0.0261 -0.58808,-0.0264 v -7.02696 h 3.30885 c 2.36199,0 4.26382,-2.55128 4.26382,-5.72006 0,-3.1456 -1.87472,-5.67898 -4.21266,-5.71593 l -7.78299,-18.20303 a 7.3846044,7.3846044 0 0 0 -4.79558,-4.20697 l -15.52515,-4.355291 a 33.637894,33.637894 0 0 0 -8.90798,-1.241785 v -0.0083 h -0.17725 -1.22111 z m 5.8229,40.506056 h 5.1e-4 22.33869 c 1.19726,-2e-5 2.16784,0.97059 2.16783,2.16782 v 17.33538 h -16.79226 c 0.003,-1.20669 0.005,-2.06397 0.007,-3.12642 0.005,-2.05214 -1.65309,-3.71505 -3.7052,-3.71399 -6.20255,0.003 -12.40513,0.009 -18.607654,0.0119 -2.052135,-10e-4 -3.709971,1.66236 -3.7052,3.7145 0.0025,1.06246 0.0034,1.91922 0.0067,3.12591 h -16.79174 v -17.33538 c -1.9e-5,-1.19727 0.970048,-2.16785 2.16731,-2.16783 H 110.1385 c 1e-5,-0.004 0,-0.008 0,-0.0119 z" /><path
       id="path10"
       style="display:inline;fill:#fac10f;fill-opacity:1;stroke-width:0.264999"
       d="m 140.831,147.29816 h 3.15737 a 4.0612488,4.0612488 45 0 1 4.06125,4.06125 4.0525144,4.0525144 135.12362 0 1 -4.06125,4.04376 h -3.15901 z"
       transform="matrix(-1,0,0,1,210.9517,-0.01769918)" /><path
       id="rect10"
       style="display:inline;fill:#ba5913;fill-opacity:1;stroke-width:0.264999"
       d="m 140.84024,147.29816 h 3.14813 a 4.0612488,4.0612488 45 0 1 4.06125,4.06125 4.061355,4.061355 135.06093 0 1 -4.06124,4.05261 l -3.14341,0.007 z"
       transform="translate(-1.2713694)" /><path
       id="rect9"
       style="display:inline;fill:#1a1d23;fill-opacity:1;stroke-width:0.264999;stroke-dasharray:none"
       d="m 90.004842,171.63759 c -2.549268,0 -4.601269,3.20748 -4.601269,5.75675 v 14.14746 l 0.95653,1.84278 c 2.242347,4.32016 6.704463,7.03155 11.571904,7.03161 h 6.867793 0.13178 6.86728 c 4.86763,1.3e-4 9.32999,-2.71128 11.57242,-7.03161 l 0.53692,-1.03456 v -14.95568 c 0,-2.54927 -2.05252,-5.75675 -4.60179,-5.75675 z m 12.249378,6.41149 c 0.90297,0 1.80591,0.003 2.70888,0.004 0.90314,-0.001 1.80626,-0.004 2.7094,-0.004 v 0.008 c 3.40704,0.007 6.17182,0.0215 9.57874,0.0615 0.0238,4.01877 -0.0315,4.32367 -0.0315,12.05663 0,2.58241 -2.74758,4.20542 -6.16293,4.20542 -1.34174,-0.008 -2.68423,-0.006 -4.02663,-0.003 l 0.64234,0.002 c -0.90309,0.005 -1.80613,0.005 -2.7094,0.004 -0.90309,10e-4 -1.80597,10e-4 -2.70888,-0.004 v -0.002 c -1.34245,-0.003 -2.684841,-0.005 -4.026624,0.003 -3.41536,0 -6.162931,-1.62301 -6.162931,-4.20542 0,-7.73296 -0.05531,-8.03786 -0.03152,-12.05663 3.406913,-0.04 6.814032,-0.0545 10.221075,-0.0615 z" /><path
       id="path15"
       style="display:inline;fill:url(#linearGradient17);stroke-width:0.264583"
       d="m 103.53528,99.206864 c -4.613163,0.181412 -9.186349,1.639476 -13.644643,2.935736 -2.982118,0.89906 -6.042978,1.55573 -8.914184,2.58021 -0.89572,0.25857 -1.714444,0.74039 -2.187464,1.57199 -0.822595,1.26107 -1.182478,2.68132 -1.837614,4.0995 l -5.837886,15.20837 h -1.197343 c -1.632745,0 -2.947107,1.31436 -2.947107,2.94711 0,1.63274 1.314362,2.9471 2.947107,2.9471 h 70.109414 c 1.63275,0 2.94711,-1.31436 2.94711,-2.9471 0,-1.63275 -1.31436,-2.94711 -2.94711,-2.94711 h -1.6924 c -4.31423,-12.26066 0.31909,1.60174 -7.18561,-19.72489 -1.36539,-1.53708 -3.56855,-1.59493 -5.39554,-2.21331 -5.60907,-1.50423 -11.12751,-3.42784 -16.89147,-4.28449 -1.76564,-0.187081 -3.53075,-0.184009 -5.32526,-0.173116 z" /><path
       id="rect17"
       style="display:inline;fill:#ba5913;fill-opacity:1;stroke-width:0.264999"
       d="m 106.87461,99.246139 v 32.250741 h 33.15095 c 1.63275,0 2.94711,-1.31437 2.94711,-2.9471 0,-1.63275 -1.31436,-2.94711 -2.94711,-2.94711 h -1.6924 c -4.31423,-12.26065 0.31908,1.60171 -7.18561,-19.72489 -1.36539,-1.53708 -3.56855,-1.59493 -5.39554,-2.21331 -5.60906,-1.50423 -11.12752,-3.42784 -16.89147,-4.28449 -0.66134,-0.07007 -1.32316,-0.107542 -1.98593,-0.133841 z" /><path
       id="path18"
       style="display:inline;fill:#1a1d23;fill-opacity:1;stroke-width:0.264583"
       d="m 78.893892,126.80725 c -0.95671,0 -1.727026,0.77031 -1.727026,1.72702 -8.75e-4,0.98755 0.0048,1.97511 -0.0075,2.96261 H 133.0511 c -0.009,-0.9875 -0.005,-1.97508 -0.005,-2.96261 0,-0.95671 -0.77032,-1.72702 -1.72703,-1.72702 z" /></g></svg>
