<?xml version="1.0" encoding="UTF-8" standalone="no"?>
<svg
   width="16"
   height="16"
   version="1.1"
   id="svg13"
   sodipodi:docname="Transform3DV3.svg"
   inkscape:version="1.4.2 (ebf0e940d0, 2025-05-08)"
   xmlns:inkscape="http://www.inkscape.org/namespaces/inkscape"
   xmlns:sodipodi="http://sodipodi.sourceforge.net/DTD/sodipodi-0.dtd"
   xmlns="http://www.w3.org/2000/svg"
   xmlns:svg="http://www.w3.org/2000/svg">
  <defs
     id="defs13" />
  <sodipodi:namedview
     id="namedview13"
     pagecolor="#ffffff"
     bordercolor="#000000"
     borderopacity="0.25"
     inkscape:showpageshadow="2"
     inkscape:pageopacity="0.0"
     inkscape:pagecheckerboard="0"
     inkscape:deskcolor="#d1d1d1"
     inkscape:zoom="32"
     inkscape:cx="10.796875"
     inkscape:cy="7.375"
     inkscape:window-width="1920"
     inkscape:window-height="1006"
     inkscape:window-x="0"
     inkscape:window-y="0"
     inkscape:window-maximized="1"
     inkscape:current-layer="svg13" />
  <linearGradient
     id="a"
     x2="0"
     y2="0"
     gradientUnits="userSpaceOnUse"
     x1="0"
     y1="16">
    <stop
       offset=".188"
       stop-color="#ff4545"
       id="stop1" />
    <stop
       stop-color="#ffe345"
       id="stop2" />
    <stop
       offset=".313"
       stop-color="#ffe345"
       id="stop3" />
    <stop
       stop-color="#80ff45"
       id="stop4" />
    <stop
       offset=".438"
       stop-color="#80ff45"
       id="stop5" />
    <stop
       stop-color="#45ffa2"
       id="stop6" />
    <stop
       offset=".563"
       stop-color="#45ffa2"
       id="stop7" />
    <stop
       stop-color="#45d7ff"
       id="stop8" />
    <stop
       offset=".688"
       stop-color="#45d7ff"
       id="stop9" />
    <stop
       stop-color="#8045ff"
       id="stop10" />
    <stop
       offset=".813"
       stop-color="#8045ff"
       id="stop11" />
    <stop
       stop-color="#ff4596"
       id="stop12" />
  </linearGradient>
  <path
     id="path14"
     style="display:inline;fill:#f53d63;fill-opacity:1"
     d="M 2.4902344,4.1914062 C 1.524543,4.2478228 1.0044429,5.7141624 2.0957031,6.2597656 L 5.5761719,8 9.0839844,9.7539062 12.935547,11.679688 c 1.31308,0.707694 2.323258,-1.314698 0.96875,-1.9394536 L 10.423828,8 6.9160156,6.2460938 3.0644531,4.3203125 C 2.8623699,4.2192709 2.6690661,4.1809587 2.4902344,4.1914062 Z" />
  <path
     id="path17"
     style="display:inline;fill:#32a9f5;fill-opacity:1"
     d="m 13.521484,4.171875 c -0.182483,-0.007 -0.380768,0.037858 -0.585937,0.1484375 L 9.0839844,6.2460938 5.5761719,8 2.0957031,9.7402344 C 0.80235751,10.386875 1.7711319,12.326377 3.0644531,11.679688 L 6.9160156,9.7539062 10.423828,8 13.904297,6.2597656 C 15.047174,5.7326324 14.506895,4.2096937 13.521484,4.171875 Z" />
  <path
     id="path18"
     style="fill:#a4e509;fill-opacity:1"
     d="M 7.8847656 1.7460938 C 7.3171769 1.7603004 6.864751 2.2528124 6.9160156 2.8339844 L 6.9160156 6.2460938 L 6.9160156 9.7539062 L 6.9160156 13.166016 C 6.8613334 13.785932 7.3800832 14.304682 8 14.25 C 8.6199037 14.30467 9.1386545 13.78592 9.0839844 13.166016 L 9.0839844 9.7539062 L 9.0839844 6.2460938 L 9.0839844 2.8339844 C 9.1386548 2.2140806 8.6199038 1.6953296 8 1.75 C 7.961255 1.74658 7.922605 1.7451538 7.8847656 1.7460938 z " />
</svg>
